<svg width="27" height="12" viewBox="0 0 27 12" fill="none" xmlns="http://www.w3.org/2000/svg">
<path d="M18.2 2.3999C18.1 2.6999 18 2.9999 18 3.3999L18.6 3.1999C18.5 2.8999 18.4 2.5999 18.2 2.3999Z" fill="white"/>
<path d="M18.1998 8.69971L17.2998 10.0997C17.3998 10.1997 17.5998 10.2997 17.6998 10.4997C18.0998 10.0997 18.3998 9.59971 18.6998 8.89971L18.1998 8.69971Z" fill="white"/>
<path d="M22.8999 4.6999C21.3999 4.4999 20.8999 4.1999 20.8999 3.6999C20.8999 3.1999 21.3999 2.8999 22.1999 2.8999C22.6999 2.8999 23.5999 2.8999 24.7999 3.6999L26.0999 1.4999C24.8999 0.699902 23.3999 0.399902 21.9999 0.399902C20.4999 0.399902 19.0999 0.999902 18.3999 2.0999C18.5999 2.3999 18.6999 2.6999 18.8999 3.0999L18.9999 3.3999L18.6999 3.4999L17.9999 3.7999C17.9999 6.2999 19.6999 6.5999 22.1999 7.1999C23.2999 7.4999 23.5999 7.7999 23.5999 8.2999C23.5999 8.7999 23.1999 9.1999 22.1999 9.1999C21.1999 9.1999 19.9999 8.9999 18.7999 7.8999L18.4999 8.3999L18.8999 8.5999L19.1999 8.6999L18.8999 8.9999C18.6999 9.6999 18.2999 10.1999 17.8999 10.6999C19.2999 11.5999 20.6999 11.7999 22.0999 11.7999C24.6999 11.7999 26.5999 10.4999 26.5999 8.2999C26.5999 5.8999 25.1999 4.9999 22.8999 4.6999Z" fill="white"/>
<path d="M7.6999 9.7H4.2999L3.6999 11.6H0.399902L4.3999 0.5H7.6999L11.5999 11.6H8.2999L7.6999 9.7ZM5.9999 4.1L5.4999 6.1L5.1999 7.2H6.9999L6.4999 6L5.9999 4.1Z" fill="white"/>
<path d="M9.7998 7.2999C9.7998 8.7999 10.2998 10.0999 11.3998 10.7999L9.7998 6.3999V7.2999Z" fill="white"/>
<path d="M15.8998 7.7999C15.5998 8.7999 14.9998 9.0999 14.2998 9.0999C13.3998 9.0999 12.9998 8.3999 12.9998 7.4999V4.4999C12.9998 3.6999 13.3998 2.9999 14.2998 2.9999C14.8998 2.9999 15.4998 3.1999 15.7998 4.2999L18.4998 3.1999C17.8998 1.2999 16.3998 0.399902 14.0998 0.399902C11.2998 0.399902 9.7998 2.3999 9.7998 4.6999V5.4999L11.7998 11.1999C12.4998 11.5999 13.2998 11.7999 14.2998 11.7999C16.3998 11.7999 17.8998 10.8999 18.5998 8.9999L15.8998 7.7999Z" fill="white"/>
</svg>
