<svg width="52" height="31" viewBox="0 0 52 31" fill="none" xmlns="http://www.w3.org/2000/svg">
<path d="M8.3999 29.1001V30.5001H31.3999V28.6001H29.9999" stroke="#888888" stroke-miterlimit="10"/>
<path d="M28.7999 28.6001H27.3999V30.1001" stroke="#888888" stroke-miterlimit="10"/>
<path d="M10.4002 30.1V20.5H8.2002" stroke="#888888" stroke-miterlimit="10"/>
<path d="M8.3999 22V15.5H21.4999V17.5H20.3999V18.5H16.4999V25.5H20.3999V26.5H21.4999V30.5" stroke="#888888" stroke-miterlimit="10"/>
<path d="M10.3999 15.5V13.5H11.8999" stroke="#888888" stroke-miterlimit="10"/>
<path d="M19.5002 15.5V13.5H18.2002" stroke="#888888" stroke-miterlimit="10"/>
<path d="M19.5002 8.7998V10.5998H18.2002" stroke="#888888" stroke-miterlimit="10"/>
<path d="M10.3999 0.5V10.6H11.8999" stroke="#888888" stroke-miterlimit="10"/>
<path d="M22.8 8.5H8.5V10" stroke="#888888" stroke-miterlimit="10"/>
<path d="M8.3999 14.1001V15.5001" stroke="#888888" stroke-miterlimit="10"/>
<path d="M19.4001 8.7V4.5H15.5001V0.5H0.600098V2.5H1.5001" stroke="#888888" stroke-miterlimit="10"/>
<path d="M2.8999 2.5H3.4999V0.5" stroke="#888888" stroke-miterlimit="10"/>
<path d="M51.3999 2.8V0.5H18.3999V2.5H19.4999" stroke="#888888" stroke-miterlimit="10"/>
<path d="M20.6001 2.5H21.5001V1" stroke="#888888" stroke-miterlimit="10"/>
<path d="M28.3999 7.8999V5.3999H48.3999" stroke="#888888" stroke-miterlimit="10"/>
<path d="M48.3999 1V7.4" stroke="#888888" stroke-miterlimit="10"/>
<path d="M47.1001 7.4H51.4001V6" stroke="#888888" stroke-miterlimit="10"/>
<path d="M31.3999 0.5V7.4H32.8999" stroke="#888888" stroke-miterlimit="10"/>
<path d="M32.8999 10.5H31.3999V12.2" stroke="#888888" stroke-miterlimit="10"/>
<path d="M28.7002 12.3999H48.4002" stroke="#888888" stroke-miterlimit="10"/>
<path d="M47.1001 9.5H51.4001V11.9" stroke="#888888" stroke-miterlimit="10"/>
<path d="M48.3999 10.1001V25.9001" stroke="#888888" stroke-miterlimit="10"/>
<path d="M51.3999 24.2002V26.5002H28.3999V24.2002" stroke="#888888" stroke-miterlimit="10"/>
<path d="M31.4002 25.9001V17.6001H28.7002" stroke="#888888" stroke-miterlimit="10"/>
<path d="M28.3999 18.9001V10.1001" stroke="#888888" stroke-miterlimit="10"/>
</svg>
