<svg width="27" height="12" viewBox="0 0 27 12" fill="none" xmlns="http://www.w3.org/2000/svg">
<path d="M3.9001 4.2999L5.2001 2.6999L7.2001 0.399902H10.8001L6.9001 4.8999L11.0001 11.4999H7.3001L4.8001 7.1999L3.8001 8.2999V11.3999H0.600098V0.399902H3.8001L3.9001 4.2999Z" fill="white"/>
<path d="M11 7.1998V4.7998H17.3V7.1998H11Z" fill="white"/>
<path d="M24.9003 5.7999C26.0003 6.2999 26.4003 7.3999 26.4003 8.0999C26.4003 10.1999 25.0003 11.5999 22.3003 11.5999C20.6003 11.5999 18.7003 10.9999 18.3003 8.5999L21.3003 8.1999C21.4003 8.8999 21.8003 9.0999 22.2003 9.0999C22.7003 9.0999 23.1003 8.7999 23.1003 8.0999C23.1003 7.2999 22.7003 6.8999 21.9003 6.8999H20.9003V4.7999H21.9003C22.6003 4.7999 23.0003 4.2999 23.0003 3.7999C23.0003 3.1999 22.7003 2.8999 22.2003 2.8999C21.9003 2.8999 21.5003 2.9999 21.3003 3.8999L18.3003 3.3999C18.7003 1.4999 20.4003 0.399902 22.5003 0.399902C25.2003 0.399902 26.3003 1.8999 26.3003 3.6999C26.3003 4.1999 25.9003 5.2999 24.9003 5.7999Z" fill="white"/>
</svg>
