<svg width="49" height="31" viewBox="0 0 49 31" fill="none" xmlns="http://www.w3.org/2000/svg">
<path d="M24.0001 8.5H2.7001L0.600098 10.5V12.8" stroke="#888888" stroke-miterlimit="10"/>
<path d="M0.600098 11.3999H3.5001V12.4999H8.6001L9.5001 12.9999V16.7999L8.4001 19.2999V26.1999" stroke="#888888" stroke-miterlimit="10"/>
<path d="M9.2001 13.5H23.5001V17.5H19.5001V23.5H23.5001V26.5H6.1001" stroke="#888888" stroke-miterlimit="10"/>
<path d="M7.6001 12.4998V8.7998" stroke="#888888" stroke-miterlimit="10"/>
<path d="M15.5 8.7998V13.8998" stroke="#888888" stroke-miterlimit="10"/>
<path d="M21.5 8.7998V13.8998" stroke="#888888" stroke-miterlimit="10"/>
<path d="M21.5 17.5V18.9" stroke="#888888" stroke-miterlimit="10"/>
<path d="M21.5 22.1001V23.5001" stroke="#888888" stroke-miterlimit="10"/>
<path d="M17 19.5H19.5" stroke="#888888" stroke-miterlimit="10"/>
<path d="M17 21.3999H19.5" stroke="#888888" stroke-miterlimit="10"/>
<path d="M6.5 28.2V30.4H30.5V25.5H29" stroke="#888888" stroke-miterlimit="10"/>
<path d="M23.2002 26.5H26.5002V27.1L27.1002 27.4H30.5002" stroke="#888888" stroke-miterlimit="10"/>
<path d="M26.5 26.5V25.5H27.9" stroke="#888888" stroke-miterlimit="10"/>
<path d="M9.5 26.5V30.4" stroke="#888888" stroke-miterlimit="10"/>
<path d="M14.5 26.5V30.4" stroke="#888888" stroke-miterlimit="10"/>
<path d="M23.5 26.2002V30.4002" stroke="#888888" stroke-miterlimit="10"/>
<path d="M21 6.3999H19.5V4.9999L22.6 1.3999H48.5V2.8999" stroke="#888888" stroke-miterlimit="10"/>
<path d="M20.8999 3.3999H23.4999V6.3999H29.5999L28.5999 11.7999V18.4999" stroke="#888888" stroke-miterlimit="10"/>
<path d="M46.1 18.5H27" stroke="#888888" stroke-miterlimit="10"/>
<path d="M29.1001 6.3999H46.0001" stroke="#888888" stroke-miterlimit="10"/>
<path d="M28.5 6.4V1.5" stroke="#888888" stroke-miterlimit="10"/>
<path d="M37.5 1.5V6.6" stroke="#888888" stroke-miterlimit="10"/>
<path d="M46.5 1.5V22.5" stroke="#888888" stroke-miterlimit="10"/>
<path d="M48.5 21.1001V22.5001H27.5V21.1001" stroke="#888888" stroke-miterlimit="10"/>
<path d="M29.5 18.5V22.5" stroke="#888888" stroke-miterlimit="10"/>
<path d="M37.6001 18.5V22.5" stroke="#888888" stroke-miterlimit="10"/>
<path d="M46.1001 6.3999H48.5001V7.8999" stroke="#888888" stroke-miterlimit="10"/>
<path d="M46.1001 18.4001H48.5001V17.1001" stroke="#888888" stroke-miterlimit="10"/>
</svg>
