<svg width="27" height="12" viewBox="0 0 27 12" fill="none" xmlns="http://www.w3.org/2000/svg">
<path d="M22.8003 7.5V10.9H19.5003V7.5H15.8003V4.8H19.5003V1.5H22.8003V4.8H26.5003V7.5H22.8003Z" fill="white"/>
<path d="M5.6001 8.0999C5.7001 8.6999 6.3001 8.9999 7.5001 8.9999C8.6001 8.9999 9.2001 8.6999 9.2001 8.1999C9.2001 7.6999 8.7001 7.4999 7.7001 7.2999L4.5001 6.9999C2.0001 6.6999 0.700098 5.5999 0.700098 3.7999C0.700098 1.2999 2.7001 0.399902 6.9001 0.399902C11.3001 0.399902 13.5001 1.3999 13.6001 3.7999H8.8001C8.7001 3.0999 8.0001 2.7999 6.7001 2.7999C5.7001 2.7999 5.2001 3.0999 5.2001 3.4999C5.2001 3.9999 5.7001 4.0999 6.8001 4.2999L10.6001 4.7999C13.0001 5.0999 14.1001 6.1999 14.1001 7.8999C14.1001 10.5999 11.7001 11.6999 6.8001 11.6999C2.7001 11.6999 0.600098 10.3999 0.600098 8.0999H5.6001Z" fill="white"/>
</svg>
