<svg width="41" height="36" viewBox="0 0 41 36" fill="none" xmlns="http://www.w3.org/2000/svg">
<path d="M6.5 15.4V13.5H1.1L0.5 12.8V11.1L2.3 8.5H15.9L16.5 9.3V16.5H13.6V18.4H20.5C20.8 18.4 21.4 18.7 21.4 19V21.4H20.5V22.5H16.5V26.5H20.5V27.6H21.4V28.6H27.4V32.9L26.1 34.6H7.4L6.5 33.5V15.4V15.4Z" stroke="#888888" stroke-miterlimit="3.864"/>
<path d="M2.3999 13.9002L6.5999 10.6002L8.5999 8.2002" stroke="#888888" stroke-width="0.5" stroke-miterlimit="3.864"/>
<path d="M6.6001 19.5002L9.7001 15.2002L14.1001 11.4002L16.8001 8.7002" stroke="#888888" stroke-width="0.5" stroke-miterlimit="3.864"/>
<path d="M23.6001 34.4004L27.0001 29.9004" stroke="#888888" stroke-width="0.5" stroke-miterlimit="3.864"/>
<path d="M17.1997 34.5004L22.3997 27.9004" stroke="#888888" stroke-width="0.5" stroke-miterlimit="3.864"/>
<path d="M9.5 34.5002C9.5 34.5002 13.7 29.4002 14 29.0002C14.3 28.6002 16.4 25.7002 16.4 25.7002" stroke="#888888" stroke-width="0.5" stroke-miterlimit="3.864"/>
<path d="M6.5 28.6004L9.7 25.4004L12.9 21.1004L15.7 18.4004" stroke="#888888" stroke-width="0.5" stroke-miterlimit="3.864"/>
<path d="M40.4998 4.80019L38.2998 1.80019L37.2998 0.700195" stroke="#888888" stroke-width="0.5" stroke-miterlimit="3.864"/>
<path d="M37.7999 9.10019L34.4999 5.80019L32.4999 3.10019L30.3999 0.700195" stroke="#888888" stroke-width="0.5" stroke-miterlimit="3.864"/>
<path d="M37.7996 15.9003L34.2996 13.0003L30.1996 7.90029L27.0996 5.30029L23.5996 0.800293" stroke="#888888" stroke-width="0.5" stroke-miterlimit="3.864"/>
<path d="M28.4996 26.1002L26.0996 23.7002" stroke="#888888" stroke-width="0.5" stroke-miterlimit="3.864"/>
<path d="M33.4 26.3001L27.7 20.1001L25.3 15.9001L21.9 13.0001L19 10.6001" stroke="#888888" stroke-width="0.5" stroke-miterlimit="3.864"/>
<path d="M40.4998 25.1001C40.4998 25.1001 35.6998 21.4001 35.2998 21.0001C34.9998 20.6001 30.3998 15.9001 30.3998 15.9001L24.1998 9.4001L18.1998 4.1001L15.2998 0.600098" stroke="#888888" stroke-width="0.5" stroke-miterlimit="3.864"/>
<path d="M26.1001 26.5L25.5001 25.9V19.5H23.6001V15.5H19.2001L18.5001 14.8V6.5H14.4001L13.6001 6.2V1.8L14.9001 0.5H39.5001L40.5001 1.8V6.8L39.9001 7.5H37.5001V11.4H39.9001L40.5001 12.1V15.1L39.9001 15.4H37.5001V19.5H39.9001L40.5001 20.4V25.3V25.5V25.8L40.4001 26L40.2001 26.1L40.1001 26.3L39.9001 26.4H39.7001L39.5001 26.5H26.1001Z" stroke="#888888" stroke-miterlimit="3.864"/>
</svg>
